<svg xmlns="http://www.w3.org/2000/svg" version="1.1" xmlns:xlink="http://www.w3.org/1999/xlink" xmlns:svgjs="http://svgjs.dev/svgjs" viewBox="0 0 800 800"><defs><linearGradient x1="50%" y1="0%" x2="50%" y2="100%" id="ccchaos-grad"><stop stop-color="hsl(206, 75%, 49%)" stop-opacity="1" offset="0%"></stop><stop stop-color="hsl(331, 90%, 56%)" stop-opacity="1" offset="100%"></stop></linearGradient></defs><g stroke-width="2" stroke="url(#ccchaos-grad)" fill="none" stroke-linecap="round"><path d="M382.28 112.25C391.74 115.52 401.22 119.18 410.72 123.05 420.24 126.56 429.81 130.04 439.41 133.4 449.06 136.14 458.78 138.67 468.57 141.01 478.45 142.73 488.44 144.34 498.53 145.91 508.74 147.08 519.08 148.39 529.53 149.96 540.1 151.42 550.77 153.33 561.49 155.76 572.28 158.35 583.05 161.6 593.71 165.53 604.3 169.8 614.65 174.79 624.63 180.49 634.31 186.57 643.43 193.32 651.83 200.69 659.66 208.39 666.57 216.62 672.4 225.31 677.44 234.25 681.27 243.56 683.79 253.14 685.46 262.9 685.83 272.86 684.91 282.96 683.35 293.16 680.71 303.45 677.14 313.77 673.39 324.14 669.12 334.52 664.54 344.86 660.45 355.23 656.52 365.54 653 375.75 650.58 385.98 648.91 396.1 648.12 406.06 648.75 416.02 650.26 425.58 652.55 434.7 655.95 443.8 659.77 452.45 663.79 460.62 668.32 468.75 672.58 476.39 676.32 483.53 679.92 490.63 682.61 497.22 684.25 503.33 685.12 512.28 679.18 528.34 672.39 535.8 666.68 541.02 659.88 546.21 652.14 551.49 643.83 557.31 634.79 563.42 625.17 569.92 615.24 577.17 604.93 584.95 594.37 593.3 583.72 602.43 572.96 612.11 562.17 622.27 551.44 632.94 540.76 643.83 530.17 654.7 519.69 665.51 509.33 675.83 499.08 685.32 488.96 693.99 478.95 701.31 469.04 706.96 459.22 711.17 449.47 713.39 439.8 713.5 430.18 712.06 420.6 708.63 411.06 703.39 401.55 697.2 392.05 689.81 382.59 681.63 373.13 673.68 363.91 665.96 354.95 658.87 345.99 653.07 337.28 648.37 328.84 644.88 320.39 643.05 312.22 642.38 304.35 642.72 296.46 644.35 288.86 646.53 281.57 648.97 274.26 651.94 267.25 654.59 260.54 656.66 253.78 658.49 247.3 659.31 241.1 658.98 234.81 657.91 228.77 655.53 222.98 651.84 217.04 647.29 211.3 641.5 205.75 634.6 200.02 626.98 194.45 618.45 189.04 609.17 183.41 599.43 177.92 589.17 172.59 578.54 167.04 567.71 161.66 556.68 156.48 545.57 151.13 534.42 146.02 523.3 141.18 512.26 136.27 501.27 131.7 490.39 127.52 479.68 123.38 469.03 119.71 458.52 116.56 448.18 113.55 437.89 111.14 427.74 109.38 417.74 107.84 407.77 106.99 397.92 106.87 388.22 107.02 378.52 107.89 369.19 109.46 360.22 111.25 351.25 113.68 342.64 116.7 334.41 119.86 326.16 123.54 318.29 127.69 310.79 131.86 303.27 136.43 296.12 141.33 289.34 146.15 282.49 151.24 275.98 156.57 269.78 161.72 263.45 167.07 257.38 172.59 251.52 177.88 245.44 183.34 239.49 188.94 233.64 194.32 227.46 199.86 221.28 205.56 215.06 211.08 208.45 216.79 201.75 222.71 194.96 228.49 187.77 234.52 180.51 240.8 173.21 246.98 165.64 253.45 158.16 260.21 150.86 266.92 143.54 273.93 136.59 281.25 130.17 288.54 124.04 296.14 118.64 304.03 114.12 311.91 110.16 320.09 107.23 328.53 105.4 336.97 104.23 345.69 104.16 354.65 105.16 363.61 106.67 372.82 109.07 382.27 112.25" stroke-dasharray="6 7" transform="rotate(0, 400, 400)" opacity="0.84"></path><path d="M385.66 123.2C394.83 126.44 404.06 130.05 413.34 133.88 422.63 137.38 432 140.88 441.43 144.27 450.9 147.09 460.47 149.73 470.11 152.18 479.83 154.03 489.66 155.76 499.58 157.44 509.59 158.69 519.71 160.05 529.89 161.59 540.16 162.97 550.47 164.72 560.77 166.91 571.07 169.19 581.29 172.05 591.34 175.51 601.25 179.24 610.85 183.64 620.02 188.69 628.86 194.07 637.1 200.1 644.59 206.72 651.54 213.65 657.56 221.13 662.55 229.07 666.82 237.27 669.95 245.85 671.87 254.75 673.05 263.83 673.06 273.15 671.92 282.65 670.25 292.26 667.64 301.99 664.23 311.78 660.72 321.63 656.76 331.51 652.56 341.36 648.84 351.25 645.29 361.09 642.1 370.83 639.93 380.59 638.44 390.24 637.72 399.73 638.28 409.22 639.63 418.31 641.67 426.97 644.74 435.63 648.2 443.85 651.84 451.62 655.99 459.38 659.92 466.68 663.42 473.53 666.86 480.37 669.51 486.79 671.24 492.79 672.49 501.71 668.13 518.27 662.45 526.29 657.58 531.94 651.65 537.65 644.81 543.51 637.4 549.91 629.25 556.62 620.47 563.72 611.36 571.48 601.8 579.73 591.93 588.46 581.92 597.83 571.71 607.63 561.42 617.74 551.12 628.21 540.81 638.74 530.54 649.09 520.34 659.27 510.21 668.84 500.18 677.52 490.24 685.35 480.39 691.84 470.64 696.73 460.97 700.26 451.39 701.94 441.89 701.68 432.45 700.02 423.06 696.55 413.75 691.44 404.46 685.5 395.22 678.46 386.04 670.68 376.87 663.11 367.96 655.73 359.33 648.87 350.68 643.16 342.31 638.42 334.21 634.75 326.1 632.58 318.27 631.47 310.73 631.3 303.16 632.37 295.88 634 288.89 635.95 281.86 638.49 275.1 640.86 268.63 642.8 262.1 644.65 255.81 645.68 249.79 645.75 243.66 645.25 237.75 643.59 232.05 640.77 226.21 637.19 220.54 632.46 215.06 626.66 209.38 620.19 203.84 612.79 198.46 604.62 192.87 595.96 187.41 586.71 182.11 577.01 176.6 567.05 171.27 556.8 166.12 546.38 160.83 535.87 155.77 525.28 151 514.72 146.16 504.15 141.65 493.64 137.54 483.25 133.47 472.9 129.86 462.66 126.77 452.59 123.83 442.54 121.46 432.63 119.73 422.89 118.23 413.17 117.39 403.59 117.28 394.18 117.42 384.77 118.29 375.74 119.82 367.08 121.58 358.41 123.96 350.11 126.92 342.18 130.03 334.22 133.65 326.62 137.72 319.38 141.83 312.09 146.33 305.13 151.16 298.51 155.92 291.79 160.96 285.36 166.23 279.19 171.35 272.87 176.66 266.75 182.13 260.78 187.4 254.59 192.83 248.48 198.39 242.42 203.74 236.05 209.24 229.65 214.89 223.21 220.35 216.4 225.98 209.52 231.81 202.57 237.48 195.28 243.37 187.96 249.48 180.65 255.49 173.15 261.76 165.78 268.29 158.65 274.76 151.57 281.5 144.9 288.53 138.78 295.52 132.98 302.8 127.93 310.37 123.74 317.91 120.11 325.74 117.47 333.85 115.87 341.94 114.91 350.32 114.99 358.96 116.08 367.58 117.65 376.49 120.05 385.65 123.2" stroke-dasharray="3 6" transform="rotate(4.04, 400, 400)" opacity="0.69"></path><path d="M389.71 134.15C398.59 137.34 407.57 140.91 416.61 144.69 425.67 148.17 434.81 151.67 444.03 155.09 453.29 157.98 462.65 160.71 472.09 163.27 481.59 165.25 491.18 167.12 500.84 168.92 510.57 170.27 520.37 171.69 530.2 173.25 540.06 174.6 549.92 176.24 559.7 178.26 569.45 180.29 579.04 182.82 588.4 185.89 597.58 189.14 606.4 193 614.75 197.46 622.74 202.19 630.11 207.54 636.72 213.44 642.81 219.64 648.01 226.36 652.22 233.55 655.79 240.99 658.29 248.83 659.69 257.01 660.47 265.36 660.18 274 658.89 282.83 657.16 291.79 654.62 300.9 651.39 310.1 648.13 319.37 644.49 328.7 640.65 338.02 637.3 347.38 634.1 356.71 631.23 365.95 629.3 375.22 627.96 384.39 627.31 393.41 627.82 402.43 629.02 411.08 630.82 419.35 633.58 427.6 636.68 435.45 639.96 442.91 643.74 450.36 647.35 457.41 650.6 464.08 653.84 470.76 656.41 477.1 658.18 483.11 659.54 489.21 659.9 495.06 659.22 500.71 657.91 506.55 655.5 512.31 652.04 518.06 647.93 524.15 642.83 530.36 636.83 536.77 630.31 543.68 623.02 550.9 615.1 558.49 606.82 566.65 598.06 575.22 588.92 584.18 579.6 593.64 570.03 603.4 560.31 613.33 550.54 623.47 540.69 633.53 530.83 643.29 521 652.77 511.19 661.57 501.45 669.42 491.78 676.43 482.17 682.12 472.66 686.28 463.2 689.19 453.83 690.38 444.55 689.79 435.31 687.94 426.15 684.47 417.08 679.5 408.03 673.8 399.04 667.11 390.14 659.73 381.24 652.54 372.63 645.48 364.29 638.87 355.95 633.28 347.88 628.52 340.09 624.7 332.28 622.24 324.74 620.74 317.49 620.1 310.2 620.62 303.18 621.71 296.44 623.16 289.65 625.25 283.12 627.28 276.84 629.01 270.48 630.79 264.36 631.92 258.47 632.25 252.46 632.18 246.65 631.1 241.04 628.99 235.27 626.27 229.66 622.48 224.21 617.69 218.57 612.28 213.07 605.98 207.71 598.88 202.16 591.31 196.73 583.1 191.46 574.38 186 565.36 180.71 555.98 175.62 546.35 170.4 536.58 165.41 526.66 160.7 516.68 155.94 506.66 151.52 496.64 147.48 486.68 143.5 476.73 139.97 466.87 136.95 457.12 134.08 447.4 131.77 437.81 130.08 428.36 128.61 418.93 127.8 409.64 127.69 400.52 127.83 391.4 128.67 382.65 130.17 374.27 131.89 365.87 134.22 357.83 137.11 350.13 140.15 342.41 143.69 335.01 147.68 327.94 151.71 320.82 156.13 313.99 160.88 307.44 165.58 300.78 170.55 294.36 175.75 288.16 180.82 281.78 186.08 275.56 191.51 269.46 196.75 263.12 202.15 256.83 207.67 250.56 213 244 218.47 237.4 224.07 230.76 229.49 223.8 235.07 216.79 240.81 209.73 246.4 202.4 252.19 195.08 258.18 187.83 264.05 180.45 270.16 173.26 276.5 166.35 282.76 159.54 289.29 153.18 296.07 147.4 302.8 141.96 309.81 137.26 317.1 133.41 324.35 130.11 331.88 127.75 339.68 126.4 347.47 125.63 355.53 125.85 363.87 127.03 372.2 128.63 380.81 131.04 389.7 134.15" stroke-dasharray="2 8" transform="rotate(8.08, 400, 400)" opacity="0.75"></path><path d="M394.23 145.1C402.84 148.24 411.55 151.75 420.33 155.47 429.13 158.93 438.03 162.42 447 165.86 456 168.8 465.1 171.62 474.26 174.28 483.47 176.4 492.76 178.4 502.09 180.32 511.45 181.8 520.85 183.31 530.23 184.91 539.62 186.27 548.94 187.87 558.14 189.76 567.26 191.61 576.18 193.89 584.8 196.62 593.22 199.48 601.24 202.87 608.75 206.81 615.9 210.96 622.42 215.67 628.2 220.91 633.49 226.4 637.92 232.4 641.43 238.86 644.37 245.54 646.33 252.63 647.29 260.08 647.72 267.7 647.22 275.62 645.82 283.76 644.09 292.03 641.65 300.48 638.62 309.05 635.62 317.7 632.3 326.43 628.83 335.18 625.82 343.98 622.96 352.77 620.39 361.51 618.68 370.27 617.49 378.95 616.9 387.52 617.36 396.09 618.42 404.33 620 412.23 622.46 420.12 625.23 427.67 628.16 434.87 631.58 442.08 634.86 448.96 637.84 455.53 640.88 462.14 643.33 468.47 645.1 474.57 646.55 480.77 647.12 486.81 646.76 492.74 645.88 498.87 644.01 505 641.16 511.17 637.75 517.68 633.41 524.34 628.21 531.22 622.52 538.55 616.08 546.18 609 554.12 601.56 562.55 593.6 571.3 585.23 580.34 576.66 589.74 567.78 599.32 558.68 608.95 549.51 618.65 540.2 628.15 530.83 637.25 521.45 645.98 512.06 653.98 502.69 661.02 493.35 667.22 484.06 672.15 474.84 675.63 465.66 677.96 456.56 678.71 447.54 677.83 438.56 675.84 429.65 672.38 420.84 667.56 412.04 662.12 403.32 655.77 394.7 648.78 386.08 641.96 377.74 635.24 369.69 628.88 361.62 623.41 353.83 618.66 346.31 614.74 338.77 612.02 331.5 610.16 324.49 609.09 317.45 609.11 310.66 609.69 304.13 610.64 297.53 612.25 291.18 613.89 285.06 615.36 278.85 616.97 272.86 618.09 267.07 618.57 261.16 618.78 255.43 618.14 249.87 616.62 244.16 614.59 238.6 611.62 233.18 607.72 227.58 603.29 222.11 597.99 216.77 591.92 211.26 585.4 205.87 578.22 200.63 570.49 195.23 562.46 190 554 184.97 545.22 179.83 536.27 174.92 527.1 170.29 517.8 165.63 508.43 161.3 499 157.36 489.57 153.48 480.12 150.04 470.7 147.09 461.38 144.3 452.05 142.06 442.82 140.41 433.72 138.99 424.63 138.21 415.65 138.09 406.83 138.24 398.01 139.06 389.53 140.51 381.4 142.18 373.25 144.44 365.42 147.26 357.92 150.22 350.38 153.67 343.14 157.56 336.19 161.51 329.17 165.84 322.4 170.49 315.87 175.11 309.23 180 302.77 185.12 296.49 190.14 290.03 195.34 283.68 200.71 277.42 205.92 270.93 211.28 264.46 216.76 258 222.07 251.28 227.51 244.52 233.07 237.73 238.46 230.67 243.99 223.57 249.67 216.47 255.21 209.17 260.91 201.92 266.8 194.78 272.56 187.59 278.54 180.62 284.73 173.99 290.83 167.49 297.17 161.48 303.75 156.05 310.27 150.99 317.05 146.66 324.09 143.15 331.08 140.17 338.35 138.09 345.88 136.97 353.39 136.39 361.17 136.74 369.23 137.99 377.28 139.63 385.61 142.03 394.22 145.1" stroke-dasharray="1 5" transform="rotate(12.12, 400, 400)" opacity="0.87"></path><path d="M399.02 156.05C407.35 159.14 415.78 162.57 424.28 166.23 432.8 169.65 441.41 173.12 450.09 176.57 458.8 179.56 467.58 182.45 476.41 185.2 485.27 187.45 494.18 189.58 503.1 191.63 512.04 193.24 520.96 194.87 529.83 196.55 538.67 197.95 547.4 199.54 555.95 201.37 564.4 203.1 572.6 205.18 580.47 207.66 588.11 210.19 595.33 213.2 602.01 216.68 608.36 220.32 614.07 224.47 619.07 229.11 623.61 233.95 627.35 239.27 630.23 245.04 632.61 251 634.1 257.37 634.7 264.09 634.86 270.98 634.2 278.18 632.75 285.63 631.06 293.2 628.75 300.97 625.94 308.9 623.2 316.89 620.21 325.01 617.08 333.18 614.4 341.39 611.86 349.63 609.58 357.86 608.08 366.1 607.03 374.31 606.49 382.44 606.9 390.58 607.83 398.44 609.21 406.01 611.4 413.58 613.84 420.87 616.44 427.88 619.51 434.9 622.47 441.67 625.18 448.2 627.99 454.78 630.3 461.17 632.02 467.39 633.51 473.74 634.23 480 634.13 486.21 633.6 492.63 632.18 499.09 629.88 505.65 627.09 512.51 623.44 519.55 618.98 526.81 614.07 534.44 608.43 542.34 602.16 550.5 595.54 559.04 588.39 567.82 580.8 576.79 572.99 586 564.83 595.27 556.42 604.48 547.89 613.64 539.19 622.51 530.37 630.9 521.52 638.87 512.6 646.06 503.67 652.3 494.75 657.72 485.84 661.93 476.98 664.78 468.14 666.58 459.35 666.93 450.64 665.81 441.95 663.71 433.33 660.28 424.8 655.64 416.29 650.45 407.85 644.44 399.5 637.83 391.16 631.38 383.09 624.98 375.31 618.88 367.51 613.56 359.97 608.85 352.7 604.85 345.41 601.93 338.36 599.76 331.57 598.3 324.74 597.85 318.15 597.93 311.79 598.39 305.37 599.53 299.16 600.75 293.17 601.9 284.14 603.78 266.83 605.01 258.48 603.75 252.82 602.29 247.29 599.99 241.9 596.86 236.35 593.28 230.91 588.89 225.6 583.77 220.14 578.23 214.8 572.04 209.61 565.28 204.28 558.22 199.12 550.7 194.16 542.8 189.11 534.72 184.3 526.36 179.77 517.81 175.22 509.16 171.01 500.38 167.16 491.55 163.39 482.68 160.06 473.8 157.2 464.94 154.5 456.08 152.33 447.27 150.74 438.55 149.37 429.83 148.61 421.21 148.5 412.69 148.65 404.18 149.44 395.97 150.84 388.08 152.46 380.16 154.65 372.53 157.37 365.19 160.25 357.81 163.6 350.68 167.38 343.8 171.22 336.85 175.44 330.11 179.98 323.56 184.51 316.9 189.31 310.39 194.34 304 199.28 297.45 204.42 290.97 209.72 284.55 214.88 277.93 220.19 271.31 225.63 264.7 230.91 257.86 236.31 250.99 241.84 244.1 247.2 237 252.69 229.9 258.32 222.83 263.8 215.62 269.45 208.5 275.25 201.55 280.93 194.59 286.8 187.91 292.86 181.58 298.83 175.45 305.02 169.8 311.43 164.75 317.77 160.08 324.35 156.12 331.17 152.95 337.95 150.29 344.98 148.49 352.26 147.59 359.52 147.19 367.05 147.66 374.84 148.98 382.62 150.65 390.67 153.03 399.01 156.05" stroke-dasharray="7 6" transform="rotate(16.16, 400, 400)" opacity="0.86"></path><path d="M403.85 167C411.9 170.02 420.03 173.38 428.23 176.97 436.44 180.34 444.73 183.78 453.07 187.21 461.43 190.25 469.85 193.19 478.29 196.03 486.75 198.39 495.23 200.66 503.68 202.83 512.12 204.59 520.52 206.34 528.81 208.11 537.05 209.6 545.14 211.22 553.02 213.03 560.77 214.7 568.23 216.66 575.33 218.95 582.21 221.23 588.64 223.93 594.53 227.03 602.58 232.07 614.76 244.63 618.64 252.12 620.55 257.41 621.65 263.1 621.96 269.14 621.91 275.32 621.14 281.82 619.69 288.59 618.07 295.46 615.93 302.56 613.35 309.85 610.88 317.19 608.2 324.69 605.41 332.28 603.05 339.9 600.81 347.6 598.79 355.32 597.49 363.05 596.57 370.79 596.08 378.51 596.45 386.22 597.25 393.73 598.45 401.01 600.37 408.29 602.52 415.35 604.8 422.21 607.53 429.09 610.17 435.78 612.61 442.3 615.18 448.89 617.32 455.35 618.96 461.72 620.44 468.21 621.25 474.68 621.35 481.15 621.1 487.82 620.06 494.57 618.23 501.43 615.98 508.57 612.94 515.88 609.15 523.39 604.96 531.2 600.08 539.24 594.57 547.48 588.75 555.99 582.38 564.66 575.56 573.41 568.51 582.3 561.1 591.15 553.39 599.83 545.55 608.39 537.49 616.57 529.27 624.21 521 631.4 512.62 637.8 504.19 643.25 495.75 647.93 487.28 651.46 478.82 653.73 470.38 655.06 461.96 655.07 453.6 653.74 445.25 651.56 436.95 648.18 428.73 643.72 420.53 638.79 412.38 633.11 404.33 626.88 396.27 620.79 388.48 614.72 380.95 608.88 373.41 603.73 366.12 599.08 359.08 595.03 352.01 591.94 345.18 589.51 338.58 587.71 331.94 586.83 325.52 586.44 319.31 586.44 313.04 587.1 306.96 587.89 301.07 588.68 292.19 590.18 275.09 591.38 266.81 590.52 261.2 589.48 255.72 587.71 250.36 585.21 244.85 582.36 239.46 578.76 234.19 574.47 228.78 569.84 223.51 564.56 218.38 558.72 213.14 552.59 208.07 545.98 203.2 538.97 198.26 531.76 193.56 524.23 189.14 516.46 184.73 508.58 180.63 500.51 176.9 492.33 173.26 484.09 170.04 475.79 167.28 467.46 164.68 459.12 162.59 450.78 161.06 442.47 159.74 434.17 159.02 425.92 158.91 417.73 159.05 409.54 159.81 401.62 161.16 393.95 162.72 386.27 164.83 378.83 167.45 371.62 170.23 364.38 173.47 357.36 177.13 350.53 180.86 343.63 184.96 336.9 189.37 330.32 193.79 323.63 198.48 317.05 203.4 310.57 208.25 303.94 213.31 297.36 218.52 290.81 223.63 284.09 228.88 277.37 234.26 270.65 239.49 263.75 244.86 256.83 250.33 249.92 255.66 242.85 261.12 235.81 266.69 228.84 272.14 221.8 277.72 214.88 283.45 208.17 289.06 201.51 294.85 195.15 300.8 189.18 306.66 183.43 312.72 178.18 318.97 173.53 325.16 169.24 331.57 165.66 338.2 162.84 344.78 160.49 351.6 158.96 358.65 158.27 365.68 158.04 372.96 158.62 380.49 159.99 388.01 161.68 395.79 164.04 403.84 167" stroke-dasharray="4 5" transform="rotate(20.200000000000003, 400, 400)" opacity="0.16"></path><path d="M408.5 177.95C416.25 180.9 424.07 184.18 431.94 187.68 439.82 190.99 447.75 194.39 455.72 197.8 463.7 200.86 471.7 203.85 479.71 206.75 487.71 209.22 495.7 211.61 503.64 213.91 511.54 215.81 519.36 217.69 527.04 219.58 534.66 221.17 542.08 222.86 549.26 224.69 556.3 226.35 563.02 228.24 569.37 230.4 578.33 233.75 593.3 242.28 599.05 247.57 603.6 253.42 608.63 267.29 609.11 275.23 608.92 280.76 608.09 286.6 606.68 292.72 605.16 298.93 603.2 305.39 600.86 312.05 598.67 318.77 596.29 325.66 593.82 332.68 591.76 339.73 589.81 346.89 588.04 354.12 586.91 361.36 586.11 368.65 585.67 375.97 586 383.29 586.69 390.46 587.71 397.47 589.39 404.49 591.26 411.36 593.25 418.08 595.65 424.83 597.99 431.47 600.15 437.99 602.47 444.59 604.43 451.12 605.95 457.62 607.38 464.23 608.24 470.87 608.47 477.54 608.44 484.4 607.7 491.35 606.26 498.43 604.48 505.73 601.97 513.2 598.78 520.82 595.24 528.69 591.04 536.72 586.26 544.88 581.17 553.22 575.56 561.64 569.49 570.06 563.2 578.51 556.52 586.84 549.52 594.92 542.39 602.81 535 610.26 527.42 617.14 519.76 623.55 511.96 629.17 504.07 633.87 496.16 637.85 488.18 640.76 480.18 642.5 472.18 643.41 464.18 643.11 456.2 641.62 448.23 639.39 440.29 636.09 432.41 631.81 424.54 627.14 416.71 621.79 408.95 615.93 401.2 610.2 393.68 604.45 386.41 598.88 379.13 593.9 372.07 589.34 365.25 585.28 358.4 582.06 351.76 579.41 345.34 577.31 338.88 576.05 332.61 575.24 326.54 574.8 320.4 574.99 314.44 575.35 308.65 575.76 299.91 576.8 283 577.71 274.8 577.07 266.53 575.63 250.38 569.19 242.5 564.16 237.18 560.31 231.98 555.85 226.93 550.84 221.8 545.59 216.84 539.84 212.08 533.67 207.27 527.32 202.7 520.62 198.41 513.62 194.14 506.51 190.18 499.18 186.59 491.67 183.08 484.11 179.98 476.42 177.33 468.65 174.84 460.86 172.84 453.02 171.37 445.17 170.12 437.31 169.42 429.45 169.32 421.61 169.46 413.77 170.18 406.13 171.47 398.7 172.97 391.26 174.99 384 177.51 376.94 180.18 369.84 183.3 362.91 186.82 356.13 190.42 349.3 194.38 342.58 198.66 335.98 202.95 329.28 207.51 322.66 212.3 316.11 217.05 309.43 222 302.78 227.11 296.16 232.14 289.39 237.31 282.63 242.61 275.87 247.79 268.97 253.1 262.09 258.52 255.23 263.8 248.27 269.21 241.37 274.73 234.58 280.13 227.76 285.66 221.11 291.31 214.7 296.86 208.38 302.57 202.4 308.42 196.82 314.19 191.47 320.13 186.64 326.24 182.39 332.3 178.51 338.55 175.29 345 172.81 351.4 170.77 358.02 169.49 364.86 169 371.67 168.93 378.71 169.61 385.98 171.02 393.24 172.73 400.75 175.06 408.49 177.95" stroke-dasharray="6 10" transform="rotate(24.24, 400, 400)" opacity="0.69"></path><path d="M412.76 188.9C420.2 191.77 427.68 194.96 435.19 198.36 442.71 201.61 450.26 204.96 457.81 208.33 465.37 211.39 472.93 214.41 480.46 217.37 487.97 219.93 495.44 222.42 502.81 224.84 510.15 226.89 517.37 228.9 524.41 230.92 531.38 232.63 538.13 234.41 544.6 236.3 550.94 237.99 556.95 239.87 562.57 241.97 570.46 245.12 583.41 252.93 588.26 257.69 592.04 262.9 595.99 275.26 596.18 282.36 595.48 289.92 591.45 306.59 588.48 315.59 586.55 321.71 584.47 328.03 582.31 334.51 580.53 341.01 578.84 347.66 577.31 354.42 576.34 361.18 575.65 368.05 575.26 374.99 575.55 381.94 576.14 388.79 577 395.55 578.45 402.32 580.06 409 581.77 415.6 583.86 422.22 585.9 428.79 587.79 435.31 589.86 441.9 591.62 448.47 593.01 455.05 594.36 461.74 595.21 468.48 595.52 475.28 595.64 482.24 595.15 489.3 594.03 496.47 592.62 503.82 590.58 511.31 587.91 518.92 584.94 526.69 581.37 534.58 577.24 542.53 572.84 550.58 567.94 558.62 562.58 566.59 557.01 574.52 551.06 582.25 544.76 589.67 538.33 596.85 531.62 603.55 524.68 609.66 517.67 615.3 510.48 620.17 503.16 624.16 495.8 627.49 488.35 629.82 480.85 631.09 473.33 631.62 465.78 631.08 458.23 629.45 450.67 627.2 443.13 623.99 435.61 619.91 428.09 615.51 420.6 610.48 413.16 604.98 405.72 599.6 398.49 594.17 391.49 588.88 384.46 584.09 377.65 579.64 371.04 575.6 364.41 572.29 357.96 569.46 351.71 567.11 345.42 565.51 339.3 564.32 333.36 563.47 324.43 563.18 307.2 563.7 298.87 563.94 290.52 564.11 274.24 562.37 266.3 560.17 260.93 558.34 255.67 555.93 250.54 552.96 245.31 549.77 240.22 546.02 235.28 541.75 230.27 537.27 225.43 532.31 220.8 526.93 216.15 521.38 211.73 515.46 207.58 509.22 203.47 502.87 199.66 496.26 196.21 489.44 192.85 482.55 189.89 475.49 187.36 468.3 184.98 461.09 183.08 453.77 181.68 446.39 180.48 439 179.82 431.56 179.73 424.09 179.86 416.61 180.55 409.28 181.78 402.1 183.21 394.91 185.14 387.86 187.54 380.95 190.09 374.01 193.08 367.19 196.45 360.48 199.92 353.72 203.73 347.05 207.85 340.45 211.99 333.78 216.41 327.16 221.06 320.58 225.68 313.9 230.5 307.25 235.49 300.61 240.41 293.87 245.49 287.13 250.69 280.42 255.8 273.61 261.03 266.82 266.37 260.1 271.6 253.32 276.94 246.64 282.4 240.09 287.74 233.57 293.2 227.25 298.78 221.19 304.26 215.27 309.88 209.68 315.63 204.52 321.31 199.61 327.14 195.2 333.12 191.36 339.04 187.88 345.14 185.03 351.42 182.88 357.65 181.13 364.08 180.09 370.7 179.79 377.29 179.86 384.09 180.63 391.1 182.08 398.1 183.79 405.32 186.08 412.75 188.89" stroke-dasharray="3 5" transform="rotate(28.28, 400, 400)" opacity="0.80"></path><path d="M416.43 199.85C423.54 202.64 430.66 205.72 437.79 209.03 444.92 212.2 452.06 215.47 459.17 218.8 466.28 221.85 473.36 224.88 480.38 227.87 487.38 230.51 494.3 233.1 501.09 235.62 507.85 237.8 514.44 239.95 520.85 242.08 527.17 243.93 533.25 245.82 539.04 247.79 547.35 250.51 561.84 256.6 567.82 260.14 576.56 268.43 583.24 284.06 583.23 290.44 582.5 297.21 578.84 312.27 576.21 320.46 574.55 326.03 572.74 331.82 570.88 337.8 569.37 343.79 567.92 349.96 566.6 356.28 565.79 362.6 565.2 369.06 564.85 375.64 565.1 382.23 565.6 388.79 566.32 395.3 567.56 401.82 568.92 408.31 570.37 414.77 572.17 421.26 573.93 427.74 575.56 434.22 577.37 440.75 578.92 447.32 580.16 453.92 581.4 460.61 582.21 467.37 582.56 474.2 582.77 481.15 582.45 488.21 581.58 495.35 580.49 502.63 578.83 510.01 576.6 517.46 574.13 525.03 571.11 532.64 567.57 540.24 563.8 547.89 559.55 555.46 554.85 562.89 549.97 570.21 544.7 577.29 539.08 584 533.34 590.44 527.29 596.39 521.01 601.74 514.64 606.63 508.07 610.79 501.34 614.12 494.57 616.85 487.67 618.67 480.68 619.51 473.68 619.72 466.61 618.97 459.5 617.25 452.39 615 445.26 611.9 438.13 608.03 431 603.88 423.87 599.18 416.76 594.03 409.65 588.99 402.73 583.89 395.99 578.87 389.24 574.28 382.67 569.96 376.28 565.97 369.87 562.61 363.62 559.66 357.54 557.1 351.43 555.21 345.46 553.68 339.65 552.46 330.91 551.56 314.01 550.95 305.8 550.78 297.58 550.68 281.55 548.99 273.73 547.1 265.89 544.58 250.7 536.82 243.41 531.59 238.55 527.78 233.86 523.52 229.38 518.84 224.9 514.02 220.64 508.82 216.66 503.29 212.72 497.66 209.08 491.75 205.79 485.58 202.59 479.36 199.77 472.92 197.36 466.31 195.11 459.68 193.3 452.9 191.98 446 190.85 439.09 190.23 432.08 190.14 424.99 190.26 417.9 190.92 410.9 192.08 403.99 193.43 397.08 195.27 390.25 197.55 383.52 199.98 376.77 202.82 370.09 206.03 363.48 209.34 356.84 212.99 350.25 216.94 343.71 220.92 337.11 225.17 330.54 229.66 324.01 234.13 317.4 238.8 310.8 243.65 304.23 248.45 297.58 253.4 290.95 258.48 284.37 263.49 277.72 268.62 271.13 273.86 264.62 279.01 258.1 284.27 251.7 289.63 245.47 294.9 239.3 300.28 233.36 305.77 227.71 311.17 222.2 316.7 217.06 322.34 212.33 327.92 207.86 333.63 203.88 339.47 200.46 345.27 197.37 351.21 194.88 357.31 193.04 363.37 191.57 369.6 190.77 376 190.64 382.38 190.84 388.94 191.69 395.67 193.17 402.4 194.87 409.32 197.11 416.42 199.84" stroke-dasharray="9 4" transform="rotate(32.32, 400, 400)" opacity="0.09"></path><path d="M419.34 210.8C426.09 213.49 432.84 216.47 439.57 219.67 446.29 222.74 452.99 225.94 459.64 229.2 466.28 232.22 472.86 235.25 479.35 238.26 485.82 240.95 492.18 243.61 498.39 246.22 504.55 248.52 510.53 250.79 516.3 253.05 524.7 256.04 539.9 261.96 546.53 265.05 557.27 271.59 568 283.48 569.57 288.37 570.4 293.57 569.58 305.47 568.1 312.13 566.33 319.11 561.88 334.32 559.53 342.5 558.26 348.03 557.04 353.75 555.92 359.66 555.25 365.56 554.75 371.64 554.45 377.88 554.66 384.12 555.07 390.38 555.66 396.64 556.7 402.91 557.85 409.2 559.05 415.5 560.58 421.82 562.06 428.18 563.44 434.56 565 440.99 566.34 447.48 567.41 454.02 568.51 460.63 569.26 467.32 569.6 474.07 569.86 480.92 569.66 487.85 568.97 494.84 568.13 501.93 566.78 509.07 564.93 516.24 562.88 523.47 560.33 530.69 557.31 537.85 554.09 544.99 550.42 552 546.34 558.81 542.09 565.49 537.46 571.86 532.49 577.85 527.39 583.55 522 588.76 516.35 593.37 510.61 597.55 504.66 601.04 498.52 603.76 492.34 605.95 486 607.3 479.55 607.78 473.08 607.71 466.51 606.79 459.87 605.01 453.23 602.79 446.54 599.81 439.81 596.15 433.09 592.27 426.34 587.88 419.59 583.08 412.83 578.38 406.22 573.59 399.77 568.85 393.31 564.48 386.99 560.31 380.83 556.4 374.65 553.03 368.62 549.98 362.72 547.27 356.79 545.14 350.99 543.32 345.32 541.77 336.8 540.31 320.26 538.59 312.21 537.97 304.17 537.54 288.46 535.63 280.81 533.9 273.16 531.7 258.39 525.05 251.33 520.56 246.64 517.31 242.13 513.63 237.82 509.55 233.52 505.37 229.46 500.82 225.65 495.93 221.9 490.96 218.44 485.69 215.32 480.14 212.29 474.55 209.62 468.71 207.35 462.67 205.22 456.61 203.52 450.35 202.28 443.94 201.22 437.52 200.63 430.96 200.55 424.27 200.66 417.58 201.28 410.93 202.38 404.32 203.65 397.71 205.38 391.14 207.53 384.63 209.83 378.09 212.52 371.6 215.56 365.15 218.71 358.67 222.18 352.22 225.94 345.8 229.75 339.33 233.82 332.89 238.11 326.47 242.42 319.99 246.92 313.54 251.6 307.12 256.24 300.64 261.05 294.21 265.98 287.83 270.86 281.43 275.87 275.1 280.98 268.89 286.02 262.69 291.17 256.65 296.42 250.8 301.6 245.03 306.87 239.51 312.25 234.3 317.55 229.24 322.97 224.56 328.49 220.29 333.95 216.27 339.53 212.72 345.22 209.7 350.87 207 356.65 204.86 362.56 203.32 368.44 202.11 374.47 201.52 380.63 201.55 386.78 201.87 393.08 202.79 399.53 204.28 405.98 205.96 412.58 208.15 419.33 210.79" stroke-dasharray="3 2" transform="rotate(36.36, 400, 400)" opacity="0.32"></path><path d="M421.35 221.75C427.74 224.34 434.09 227.21 440.39 230.28 446.69 233.26 452.94 236.36 459.11 239.54 471.42 245.26 483.35 251.02 494.65 256.64 505.76 261.16 516.03 265.65 525.19 270.22 533.9 273.96 541.24 278.13 546.95 282.89 552.03 287.29 555.38 292.58 556.9 298.82 557.94 305.02 557.4 312.29 555.46 320.58 553.71 328.91 551.19 338.24 548.26 348.45 546.71 356.23 544.51 372.79 544.04 381.55 544.22 387.46 544.55 393.42 545.02 399.42 545.89 405.43 546.83 411.49 547.81 417.59 550.63 429.86 553.08 442.38 554.79 455.1 556.72 468.04 557.28 481.28 556.28 494.68 554.81 508.26 551.54 521.87 546.54 535.17 540.91 548.2 533.65 560.39 525.02 571.17 515.94 580.81 505.73 588.3 494.67 593.09 483.42 596.02 471.53 595.94 459.24 592.75 453.08 590.57 446.84 587.74 440.54 584.29 434.24 580.67 427.89 576.59 421.5 572.14 415.11 567.76 408.84 563.29 402.69 558.83 396.53 554.69 390.5 550.68 384.58 546.87 372.71 540.67 361.27 535.52 350.3 531.41 339.18 529.11 328.42 527.31 318.08 525.6 307.52 524.77 297.3 523.27 287.51 520.75 277.52 518.25 267.98 514.32 259.05 508.9 250.07 503.16 241.83 495.92 234.57 487.34 227.54 478.49 221.71 468.47 217.32 457.49 215.33 451.96 213.74 446.22 212.57 440.3 211.58 434.36 211.03 428.25 210.96 421.97 211.06 415.7 211.64 409.41 212.67 403.13 213.86 396.85 215.49 390.58 217.5 384.32 221.94 371.78 227.81 359.25 234.86 346.81 242.13 334.27 250.37 321.75 259.34 309.39 268.25 296.96 277.77 284.75 287.73 273.01 297.48 261.47 307.66 250.68 318.18 241.02 328.48 232.05 339.19 224.62 350.28 219.1 361.21 214.71 372.62 212.47 384.47 212.52 390.37 212.95 396.4 213.92 402.55 215.41 408.69 217.07 414.96 219.19 421.34 221.74" stroke-dasharray="8 1" transform="rotate(40.400000000000006, 400, 400)" opacity="0.76"></path><path d="M422.37 232.7C434.37 237.66 446.14 243.51 457.52 249.82 468.85 255.45 479.71 261.19 489.88 266.87 499.86 271.58 508.98 276.28 517 281.04 524.63 285.02 530.96 289.33 535.81 294.11 540.15 298.48 542.96 303.59 544.17 309.5 545.06 315.3 544.6 322.03 542.95 329.7 541.55 337.36 539.5 345.96 537.06 355.45 535.68 364.92 534.48 375.27 533.63 386.43 534.33 397.59 535.39 409.07 536.65 420.77 538.98 432.53 540.96 444.6 542.31 456.86 543.94 469.26 544.4 481.9 543.54 494.58 542.36 507.31 539.62 519.91 535.33 532.04 530.56 543.78 524.29 554.58 516.73 563.92 508.79 572.17 499.73 578.38 489.79 582.12 479.67 584.26 468.84 583.72 457.53 580.46 446.17 576 434.42 569.42 422.42 561.19 410.42 553.21 398.73 545.09 387.45 537.39 376.13 531.22 365.14 525.87 354.54 521.36 343.82 518.45 333.42 516.01 323.38 513.71 313.18 512.32 303.31 510.45 293.85 507.82 284.26 505.36 275.12 501.74 266.58 496.86 258.06 491.8 250.27 485.4 243.42 477.75 236.83 469.92 231.37 460.93 227.28 450.95 223.71 440.89 221.67 429.94 221.36 418.24 221.74 406.54 223.83 394.66 227.46 382.76 231.6 370.84 237.1 358.86 243.72 346.93 250.58 334.95 258.38 323 266.9 311.23 275.42 299.49 284.55 288.03 294.12 277.11 303.54 266.47 313.38 256.64 323.55 247.94 333.55 239.94 343.92 233.41 354.6 228.68 365.17 224.97 376.13 223.22 387.43 223.56 398.69 224.8 410.36 227.89 422.36 232.69" stroke-dasharray="1 5" transform="rotate(44.44, 400, 400)" opacity="0.26"></path><path d="M422.36 243.65C433.56 248.39 444.43 253.97 454.84 260.03 465.21 265.53 475.03 271.21 484.12 276.9 493.04 281.74 501.09 286.62 508.07 291.54 514.74 295.75 520.2 300.22 524.32 305.07 529.25 311.99 532.11 328.89 530.59 339.23 529.55 346.34 527.92 354.34 525.95 363.18 524.91 372 523.96 381.68 523.22 392.18 523.82 402.69 524.63 413.57 525.56 424.69 527.44 435.86 528.99 447.33 529.98 458.96 531.3 470.66 531.63 482.5 530.82 494.28 529.83 506 527.49 517.46 523.79 528.32 519.73 538.73 514.33 548.12 507.72 556.07 500.79 563.01 492.8 568.06 483.92 570.87 474.87 572.33 465.09 571.43 454.74 568.16 444.36 563.92 433.49 557.83 422.3 550.24 411.1 542.87 400.1 535.28 389.4 527.95 378.67 521.88 368.19 516.41 358.02 511.62 347.78 508.21 337.79 505.19 328.13 502.36 318.37 500.41 308.9 498.13 299.85 495.29 290.72 492.73 282.04 489.24 273.96 484.7 265.93 480.12 258.62 474.37 252.22 467.49 246.08 460.49 241.01 452.4 237.23 443.33 233.93 434.2 232.05 424.17 231.77 413.32 232.11 402.48 234.05 391.37 237.41 380.16 241.24 368.96 246.35 357.64 252.52 346.35 258.94 335.07 266.26 323.83 274.3 312.81 282.37 301.89 291.04 291.31 300.15 281.32 309.18 271.65 318.62 262.81 328.36 255.11 337.99 248.06 347.95 242.42 358.17 238.45 368.31 235.37 378.77 234.07 389.48 234.67 400.17 236.02 411.16 239.05 422.36 243.65" stroke-dasharray="1 6" transform="rotate(48.48, 400, 400)" opacity="0.13"></path><path d="M421.3 254.6C431.68 259.09 441.65 264.39 451.11 270.18 460.53 275.52 469.35 281.08 477.42 286.72 485.36 291.64 492.44 296.64 498.51 301.69 504.33 306.09 509.05 310.73 512.57 315.65 516.86 322.66 519.52 339.08 518.4 348.88 517.68 355.56 516.46 363.05 514.91 371.31 514.17 379.55 513.44 388.6 512.81 398.45 513.31 408.3 513.92 418.51 514.55 428.96 516.02 439.45 517.16 450.18 517.82 461.03 518.82 471.88 518.97 482.79 518.17 493.52 517.28 504.12 515.23 514.35 512.01 523.88 508.53 532.95 503.86 540.98 498.08 547.61 492.06 553.35 485.03 557.35 477.13 559.35 469.09 560.24 460.3 559.07 450.91 555.84 441.47 551.86 431.51 546.24 421.14 539.29 410.77 532.53 400.5 525.47 390.43 518.54 380.34 512.64 370.43 507.15 360.77 502.17 351.06 498.36 341.56 494.88 332.36 491.58 323.1 489.09 314.12 486.39 305.54 483.28 296.93 480.52 288.77 477.03 281.19 472.71 273.7 468.42 266.9 463.14 260.97 456.88 255.3 450.55 250.64 443.23 247.17 434.98 244.14 426.69 242.43 417.52 242.18 407.54 242.49 397.55 244.26 387.26 247.35 376.83 250.86 366.42 255.57 355.88 261.27 345.36 267.22 334.9 274.04 324.49 281.54 314.35 289.12 304.36 297.28 294.74 305.88 285.75 314.44 277.11 323.4 269.29 332.65 262.58 341.82 256.47 351.3 251.68 360.99 248.41 370.63 245.92 380.53 245.03 390.6 245.84 400.66 247.28 410.93 250.22 421.3 254.6" stroke-dasharray="0 3" transform="rotate(52.52, 400, 400)" opacity="0.40"></path><path d="M419.26 265.55C428.8 269.79 437.88 274.78 446.41 280.27 454.91 285.4 462.79 290.8 469.93 296.32 476.96 301.26 483.17 306.31 488.44 311.43 495.58 318.37 504.48 332.86 506.26 340.82 507.1 346.06 507.11 351.89 506.39 358.34 505.98 364.69 505.12 371.73 503.94 379.48 503.46 387.18 502.93 395.63 502.4 404.81 502.81 413.99 503.24 423.49 503.62 433.19 504.71 442.9 505.5 452.8 505.85 462.73 506.53 472.63 506.49 482.49 505.64 492.07 504.79 501.48 502.95 510.43 500.1 518.64 497.08 526.4 493.01 533.13 487.96 538.55 482.72 543.19 476.55 546.27 469.55 547.59 462.44 548.01 454.59 546.65 446.12 543.52 437.6 539.81 428.53 534.67 419.01 528.34 409.48 522.17 399.97 515.66 390.58 509.16 381.19 503.48 371.9 498.06 362.81 493 353.71 488.92 344.77 485.07 336.1 481.39 327.41 478.43 318.99 475.33 310.95 471.95 302.93 468.94 295.33 465.37 288.31 461.13 281.39 457 275.13 452.06 269.7 446.27 264.51 440.48 260.26 433.81 257.11 426.29 254.36 418.75 252.81 410.39 252.59 401.26 252.87 392.13 254.48 382.69 257.28 373.11 260.48 363.55 264.77 353.87 269.99 344.24 275.46 334.68 281.74 325.22 288.67 316.05 295.7 307.06 303.3 298.47 311.32 290.52 319.35 282.93 327.76 276.14 336.44 270.39 345.09 265.19 354.01 261.19 363.11 258.58 372.18 256.62 381.45 256.1 390.84 257.07 400.22 258.57 409.73 261.41 419.26 265.55" stroke-dasharray="4 5" transform="rotate(56.56, 400, 400)" opacity="0.26"></path><path d="M416.33 276.5C425.01 280.46 433.21 285.14 440.86 290.29 448.47 295.17 455.47 300.36 461.76 305.71 467.96 310.6 473.41 315.62 478 320.74 484.26 327.82 492.17 342.47 493.88 350.35 494.78 355.52 494.98 361.18 494.55 367.34 494.43 373.4 493.9 380.05 493.05 387.3 492.8 394.51 492.43 402.37 491.99 410.86 492.33 419.35 492.59 428.09 492.76 436.96 493.52 445.83 493.99 454.81 494.05 463.73 494.44 472.61 494.21 481.34 493.29 489.73 492.42 497.92 490.71 505.6 488.15 512.53 485.49 519.03 481.92 524.57 477.48 528.88 472.91 532.56 467.49 534.85 461.32 535.6 455.05 535.65 448.07 534.18 440.48 531.2 432.86 527.77 424.66 523.11 415.99 517.39 407.32 511.8 398.6 505.84 389.94 499.8 381.28 494.41 372.69 489.14 364.24 484.1 355.8 479.85 347.49 475.76 339.44 471.79 331.38 468.45 323.58 465.02 316.15 461.38 308.76 458.11 301.78 454.41 295.34 450.21 289.03 446.14 283.33 441.43 278.41 436.02 273.72 430.64 269.88 424.51 267.05 417.66 264.58 410.79 263.19 403.19 263 394.9 263.24 386.61 264.69 378.05 267.22 369.36 270.09 360.7 273.97 351.96 278.69 343.29 283.65 334.7 289.37 326.25 295.7 318.12 302.15 310.17 309.14 302.65 316.54 295.76 323.97 289.2 331.77 283.41 339.82 278.59 347.86 274.24 356.16 270.99 364.6 268.97 373.03 267.49 381.62 267.27 390.27 268.38 398.93 269.9 407.65 272.62 416.33 276.5" stroke-dasharray="6 1" transform="rotate(60.599999999999994, 400, 400)" opacity="0.40"></path><path d="M412.64 287.45C420.47 291.12 427.81 295.46 434.61 300.26 441.38 304.85 447.56 309.77 453.09 314.89 458.56 319.64 463.33 324.57 467.34 329.62 472.87 336.71 480 351.36 481.71 359.14 482.69 364.23 483.07 369.71 482.92 375.6 483.04 381.39 482.79 387.67 482.23 394.44 482.17 401.17 481.94 408.43 481.58 416.21 481.85 423.99 481.99 431.93 481.97 439.92 482.45 447.9 482.64 455.9 482.46 463.77 482.57 471.57 482.15 479.15 481.15 486.34 480.24 493.33 478.62 499.79 476.27 505.51 472.3 513.08 460.42 522.3 452.6 523.42 447.09 523.2 440.92 521.68 434.17 518.88 427.39 515.76 420.05 511.57 412.24 506.44 404.42 501.41 396.51 496.01 388.62 490.46 380.74 485.41 372.88 480.37 365.15 475.45 357.42 471.15 349.81 466.93 342.43 462.79 335.07 459.18 327.95 455.49 321.18 451.66 314.46 448.16 308.14 444.34 302.32 440.14 296.64 436.1 291.52 431.55 287.11 426.46 282.92 421.41 279.51 415.75 277 409.49 274.8 403.22 273.57 396.34 273.41 388.87 273.62 381.41 274.9 373.72 277.15 365.96 279.71 358.23 283.16 350.46 287.39 342.79 291.83 335.21 296.97 327.81 302.68 320.74 308.51 313.85 314.85 307.4 321.57 301.55 328.35 295.99 335.48 291.16 342.84 287.2 350.22 283.65 357.82 281.07 365.55 279.57 373.28 278.51 381.14 278.55 389.02 279.75 396.91 281.27 404.82 283.84 412.64 287.45" stroke-dasharray="3 8" transform="rotate(64.64, 400, 400)" opacity="0.07"></path><path d="M408.37 298.39C415.34 301.77 421.85 305.75 427.85 310.16 433.82 314.43 439.26 319.03 444.1 323.85 448.9 328.41 453.08 333.16 456.61 338.04 461.51 345.02 468.05 359.45 469.79 367.03 471.11 374.65 471.8 391.35 471.48 400.56 471.57 406.8 471.47 413.45 471.18 420.5 471.38 427.54 471.41 434.65 471.25 441.73 471.5 448.79 471.45 455.79 471.06 462.59 470.94 469.31 470.35 475.77 469.27 481.79 467.51 490.3 460.95 503.61 456.06 507.88 450.45 510.55 436.04 509.9 427.36 506.57 421.38 503.77 414.87 500.04 407.91 495.49 400.95 491.02 393.87 486.17 386.78 481.13 379.71 476.47 372.64 471.72 365.66 467.02 358.7 462.78 351.84 458.56 345.19 454.37 338.57 450.6 332.17 446.76 326.1 442.82 320.1 439.16 314.46 435.26 309.29 431.09 304.24 427.07 299.72 422.67 295.84 417.85 292.15 413.09 289.15 407.85 286.95 402.14 285.02 396.44 283.95 390.24 283.82 383.57 284 376.9 285.12 370.1 287.1 363.27 289.33 356.47 292.37 349.68 296.1 343.04 300.02 336.48 304.57 330.12 309.64 324.11 314.83 318.25 320.49 312.83 326.5 307.98 332.58 303.37 338.99 299.42 345.61 296.26 352.27 293.43 359.13 291.44 366.09 290.4 373.07 289.7 380.15 289.94 387.22 291.18 394.31 292.67 401.39 295.08 408.37 298.39" stroke-dasharray="3 1" transform="rotate(68.68, 400, 400)" opacity="0.08"></path><path d="M403.7 309.34C415.96 315.45 426.5 323.53 434.98 332.62 443.35 340.95 449.62 350.12 453.61 359.75 457.68 368.65 459.85 378.44 460.24 389.02 461.45 399.33 461.61 410.87 460.77 423.45 461.47 436.03 461.18 448.48 459.87 460.05 459.41 471.35 457.18 481.24 453.08 488.73 449.07 495.28 442.81 498.79 434.45 498.58 425.99 497.27 415.46 492.51 403.22 484.54 390.97 476.84 378.29 467.92 365.91 458.78 353.62 451.03 341.73 443.03 330.99 434.89 320.54 427.68 311.47 419.57 304.59 410.44 298.37 401.53 294.68 391.11 294.23 379.34 294.77 367.56 298.55 355.6 304.83 344.25 311.78 333.18 320.89 323.15 331.38 315.1 342.15 307.82 354.06 303.04 366.36 301.45 378.75 300.85 391.44 303.44 403.7 309.34" stroke-dasharray="7 6" transform="rotate(72.72, 400, 400)" opacity="0.36"></path><path d="M398.87 320.29C409.47 325.75 418.57 332.97 425.91 341.19 433.2 348.89 438.75 357.45 442.42 366.44 446.23 374.92 448.47 384.13 449.2 393.88 450.6 403.43 450.99 413.85 450.36 424.88 450.87 435.9 450.37 446.5 448.89 456.06 448.08 465.41 445.78 473.32 441.94 479.05 438.24 484.11 432.69 486.57 425.4 485.97 418.06 484.64 408.97 480.47 398.38 473.59 387.79 466.92 376.8 459.02 366.07 450.73 355.43 443.41 345.16 435.71 335.92 427.85 326.95 420.7 319.21 412.87 313.38 404.37 308.1 396.07 304.99 386.7 304.63 376.45 305.07 366.19 308.26 356.04 313.61 346.63 319.5 337.42 327.28 329.3 336.29 322.97 345.57 317.21 355.86 313.62 366.51 312.72 377.26 312.52 388.26 315 398.87 320.29" stroke-dasharray="1 5" transform="rotate(76.76, 400, 400)" opacity="0.22"></path><path d="M394.08 331.24C403.07 336.01 410.81 342.33 417.1 349.57 423.38 356.5 428.26 364.25 431.63 372.41 435.15 380.23 437.4 388.65 438.38 397.41 439.86 406.04 440.41 415.23 439.95 424.68 440.31 434.13 439.67 442.94 438.11 450.64 435.91 461.27 425.35 473.26 416.62 473.28 410.33 472.02 402.59 468.45 393.61 462.64 384.64 456.98 375.34 450.14 366.29 442.82 357.32 436.14 348.69 428.99 340.96 421.66 333.47 414.83 327.04 407.49 322.24 399.74 317.87 392.15 315.31 383.86 315.04 375.09 315.38 366.31 318.01 357.89 322.44 350.28 327.3 342.81 333.77 336.41 341.31 331.59 349.07 327.16 357.72 324.57 366.71 324.2 375.79 324.3 385.1 326.6 394.08 331.24" stroke-dasharray="2 3" transform="rotate(80.80000000000001, 400, 400)" opacity="0.26"></path><path d="M389.57 342.19C396.98 346.24 403.41 351.6 408.71 357.79 414.02 363.8 418.24 370.56 421.29 377.69 424.47 384.63 426.64 392.05 427.75 399.65 429.23 407.18 429.86 415.03 429.54 422.88 429.78 430.73 429.07 437.83 427.53 443.86 425.24 452.11 415.72 460.86 408.28 460.53 402.98 459.41 396.54 456.46 389.14 451.69 381.75 447.02 374.13 441.29 366.74 435.03 359.42 429.17 352.42 422.8 346.19 416.24 340.14 410.01 334.99 403.38 331.17 396.53 327.67 389.8 325.64 382.66 325.45 375.35 325.7 368.04 327.79 361.23 331.35 355.26 335.21 349.38 340.41 344.49 346.5 340.96 352.76 337.67 359.79 335.89 367.13 335.89 374.54 336.17 382.17 338.24 389.57 342.19" stroke-dasharray="4 11" transform="rotate(84.84, 400, 400)" opacity="0.94"></path><path d="M385.55 353.14C397.28 359.72 406.22 370.43 411.45 382.36 417.08 393.92 419.9 407.08 419.13 419.59 419.77 432.1 416.85 441.45 411.15 445.91 405.86 449.76 396.9 448.24 385.18 440.74 373.45 433.49 361.37 422.82 351.68 411.52 342.49 400.95 336.38 388.95 335.86 377.22 336.48 365.48 342.68 356.14 351.94 351.04 361.69 346.47 373.81 346.79 385.55 353.14" stroke-dasharray="5 8" transform="rotate(88.88, 400, 400)" opacity="0.75"></path><path d="M382.19 364.09C390.91 369.12 397.83 377.32 402.13 386.5 406.7 395.54 409.16 405.7 408.72 415.02 407.79 427.65 394.08 435.94 381.9 429.79 373.18 424.38 364.4 416.19 357.5 407.36 350.89 398.88 346.56 389.41 346.27 380.57 346.64 371.72 351.04 365.1 357.7 361.77 364.66 358.68 373.46 359.2 382.19 364.09" stroke-dasharray="4 6" transform="rotate(92.92, 400, 400)" opacity="0.60"></path><path d="M379.66 375.04C391.22 381.85 399.04 397.15 398.31 409.48 398.92 421.8 391.01 426.11 379.46 418.84 367.89 411.81 357.23 397.06 356.68 385.18 357.34 373.29 368.09 368.46 379.66 375.04" stroke-dasharray="6 11" transform="rotate(96.96, 400, 400)" opacity="0.51"></path></g></svg>